<svg version="1.1" id="Layer_1" xmlns="http://www.w3.org/2000/svg" xmlns:xlink="http://www.w3.org/1999/xlink" x="0px" y="0px"
	 width="100%" viewBox="0 0 512 512" enable-background="new 0 0 512 512" xml:space="preserve">
<path fill="#FFFFFF" opacity="1.000000" stroke="none" 
	d="
M0.999991,423.000000 
	C1.000000,282.387177 1.000000,141.774338 1.000000,1.080754 
	C171.547470,1.080754 342.095001,1.080754 513.000000,1.080754 
	C513.000000,65.355537 513.000000,129.711731 512.639954,194.415131 
	C497.455048,151.003204 461.379395,122.828392 415.011841,118.481186 
	C413.052856,97.333160 404.986725,79.012207 391.658997,63.364178 
	C372.509674,40.881069 347.516541,28.851099 318.185974,27.250105 
	C303.923676,26.471605 289.409943,27.448591 275.200256,29.186333 
	C250.245758,32.238087 230.129471,45.172070 213.949280,63.787815 
	C196.589386,83.760796 189.356644,107.871956 189.066483,134.031647 
	C188.741394,163.340714 188.928802,192.655441 188.571411,222.103180 
	C178.508865,227.330582 170.363907,234.456436 163.052231,242.517853 
	C148.662857,258.382629 134.452591,274.409760 120.145172,290.348999 
	C113.755608,297.467285 107.281372,304.509644 100.896187,311.631836 
	C86.820557,327.332123 72.787788,343.070831 58.715576,358.774200 
	C52.442890,365.773956 46.099384,372.710236 39.819435,379.703522 
	C26.868444,394.125671 13.938551,408.566711 0.999991,423.000000 
z"/>
<path fill="#FFFFFF" opacity="1.000000" stroke="none" 
	d="
M513.000000,198.000000 
	C513.000000,302.949951 513.000000,407.899902 513.000000,512.924927 
	C342.333344,512.924927 171.666672,512.924927 1.000000,512.924927 
	C1.000000,483.908173 1.000000,454.921936 1.468657,425.467834 
	C55.349045,425.000000 108.760788,425.013580 162.172455,424.958405 
	C164.749054,424.955750 167.325043,424.347748 169.977753,424.275330 
	C170.356964,424.646942 170.659729,424.764893 171.398041,424.966003 
	C173.896866,424.993530 175.960159,424.937897 178.488052,424.934204 
	C202.281586,425.027710 225.610519,425.069305 248.967072,425.571747 
	C248.996445,442.522278 249.308228,459.020142 248.869476,475.498077 
	C248.649338,483.766357 254.114655,486.842102 259.684692,486.916260 
	C276.837585,487.144806 293.996735,487.123840 311.150665,486.939178 
	C318.066559,486.864685 321.760559,482.196930 321.894867,476.680756 
	C322.030701,471.103638 318.123901,466.174591 311.017334,466.045013 
	C301.193451,465.865845 291.363831,466.000000 281.536682,466.000000 
	C277.434235,465.999969 273.331787,466.000000 269.105072,466.000000 
	C269.105072,451.626556 269.105072,437.828033 269.537964,424.016541 
	C280.345398,421.655548 290.986816,420.111206 301.033295,416.775269 
	C317.002228,411.472839 330.643646,401.822052 342.344849,389.887756 
	C348.440582,383.670593 353.642914,376.391663 358.314148,369.001556 
	C368.719391,352.540100 374.729126,334.443909 374.924347,314.867310 
	C375.242889,282.925873 375.076874,250.979599 375.425934,218.906372 
	C382.834106,211.806763 389.931702,204.836151 397.492554,197.926483 
	C436.303864,197.991638 474.651947,197.995819 513.000000,198.000000 
z"/>
<path fill="#5A595C" opacity="1.000000" stroke="none" 
	d="
M169.901306,424.021637 
	C167.325043,424.347748 164.749054,424.955750 162.172455,424.958405 
	C108.760788,425.013580 55.349045,425.000000 1.468657,425.000000 
	C1.000000,424.555542 1.000000,424.111115 0.999991,423.333313 
	C13.938551,408.566711 26.868444,394.125671 39.819435,379.703522 
	C46.099384,372.710236 52.442890,365.773956 58.715576,358.774200 
	C72.787788,343.070831 86.820557,327.332123 100.896187,311.631836 
	C107.281372,304.509644 113.755608,297.467285 120.145172,290.348999 
	C134.452591,274.409760 148.662857,258.382629 163.052231,242.517853 
	C170.363907,234.456436 178.508865,227.330582 188.948380,222.078491 
	C207.114792,214.102432 225.389435,211.910797 244.124222,215.140060 
	C259.250671,217.747375 272.123535,225.142410 283.127075,236.312256 
	C291.500122,245.558090 297.671234,255.688370 300.302155,267.639069 
	C303.744415,283.275238 302.920868,299.112549 299.491852,314.461548 
	C291.047089,352.261993 270.446014,381.985992 237.602509,402.902344 
	C221.874451,412.918732 204.758713,419.279083 186.323517,422.187195 
	C183.485733,422.634827 180.786667,423.961914 178.023453,424.882263 
	C175.960159,424.937897 173.896866,424.993530 171.286987,424.755310 
	C170.493820,424.251648 170.214111,424.105072 169.901306,424.021637 
z"/>
<path fill="#1E252B" opacity="1.000000" stroke="none" 
	d="
M513.000000,197.625000 
	C474.651947,197.995819 436.303864,197.991638 397.515961,197.582550 
	C410.240997,178.299896 416.204895,157.383789 415.039307,134.384949 
	C414.778564,129.240005 415.013885,124.069908 415.020844,118.911385 
	C461.379395,122.828392 497.455048,151.003204 512.639954,194.881165 
	C513.000000,195.750000 513.000000,196.500000 513.000000,197.625000 
z"/>
<path fill="#4C4B4F" opacity="1.000000" stroke="none" 
	d="
M415.011841,118.481186 
	C415.013885,124.069908 414.778564,129.240005 415.039307,134.384949 
	C416.204895,157.383789 410.240997,178.299896 397.052673,197.521576 
	C389.931702,204.836151 382.834106,211.806763 375.060791,218.925125 
	C373.618286,219.374268 372.775513,219.557449 372.095825,219.994308 
	C355.298340,230.790619 336.760712,235.140961 316.982178,235.009796 
	C307.362274,234.945999 297.741150,234.949310 288.121796,235.044586 
	C286.400970,235.061646 284.686127,235.677490 282.968506,236.016876 
	C272.123535,225.142410 259.250671,217.747375 244.124222,215.140060 
	C225.389435,211.910797 207.114792,214.102432 189.270172,221.943024 
	C188.928802,192.655441 188.741394,163.340714 189.066483,134.031647 
	C189.356644,107.871956 196.589386,83.760796 213.949280,63.787815 
	C230.129471,45.172070 250.245758,32.238087 275.200256,29.186333 
	C289.409943,27.448591 303.923676,26.471605 318.185974,27.250105 
	C347.516541,28.851099 372.509674,40.881069 391.658997,63.364178 
	C404.986725,79.012207 413.052856,97.333160 415.011841,118.481186 
M328.131348,120.773682 
	C321.749023,130.684769 325.329254,139.414413 330.623779,144.091782 
	C340.057983,152.426346 353.337006,147.920441 357.454529,138.797165 
	C360.900238,131.162582 358.299774,121.184273 352.387054,117.231285 
	C344.493958,111.954300 335.393768,113.066849 328.131348,120.773682 
z"/>
<path fill="#3D3C40" opacity="1.000000" stroke="none" 
	d="
M283.127075,236.312241 
	C284.686127,235.677490 286.400970,235.061646 288.121796,235.044586 
	C297.741150,234.949310 307.362274,234.945999 316.982178,235.009796 
	C336.760712,235.140961 355.298340,230.790619 372.095825,219.994308 
	C372.775513,219.557449 373.618286,219.374268 374.750183,219.054108 
	C375.076874,250.979599 375.242889,282.925873 374.924347,314.867310 
	C374.729126,334.443909 368.719391,352.540100 358.314148,369.001556 
	C353.642914,376.391663 348.440582,383.670593 342.344849,389.887756 
	C330.643646,401.822052 317.002228,411.472839 301.033295,416.775269 
	C290.986816,420.111206 280.345398,421.655548 269.062897,424.005646 
	C266.196747,424.005341 264.231140,423.892090 262.281921,424.023041 
	C257.830170,424.322174 253.386444,424.740784 248.939453,425.110870 
	C225.610519,425.069305 202.281586,425.027710 178.488052,424.934204 
	C180.786667,423.961914 183.485733,422.634827 186.323517,422.187195 
	C204.758713,419.279083 221.874451,412.918732 237.602509,402.902344 
	C270.446014,381.985992 291.047089,352.261993 299.491852,314.461548 
	C302.920868,299.112549 303.744415,283.275238 300.302155,267.639069 
	C297.671234,255.688370 291.500122,245.558090 283.127075,236.312241 
z"/>
<path fill="#1E252B" opacity="1.000000" stroke="none" 
	d="
M248.967072,425.571747 
	C253.386444,424.740784 257.830170,424.322174 262.281921,424.023041 
	C264.231140,423.892090 266.196747,424.005341 268.630005,424.018585 
	C269.105072,437.828033 269.105072,451.626556 269.105072,466.000000 
	C273.331787,466.000000 277.434235,465.999969 281.536682,466.000000 
	C291.363831,466.000000 301.193451,465.865845 311.017334,466.045013 
	C318.123901,466.174591 322.030701,471.103638 321.894867,476.680756 
	C321.760559,482.196930 318.066559,486.864685 311.150665,486.939178 
	C293.996735,487.123840 276.837585,487.144806 259.684692,486.916260 
	C254.114655,486.842102 248.649338,483.766357 248.869476,475.498077 
	C249.308228,459.020142 248.996445,442.522278 248.967072,425.571747 
z"/>
<path fill="#3D3C40" opacity="1.000000" stroke="none" 
	d="
M169.977753,424.275330 
	C170.214111,424.105072 170.493820,424.251648 170.851456,424.672119 
	C170.659729,424.764893 170.356964,424.646942 169.977753,424.275330 
z"/>
<path fill="#1E252B" opacity="1.000000" stroke="none" 
	d="
M328.334351,120.460373 
	C335.393768,113.066849 344.493958,111.954300 352.387054,117.231285 
	C358.299774,121.184273 360.900238,131.162582 357.454529,138.797165 
	C353.337006,147.920441 340.057983,152.426346 330.623779,144.091782 
	C325.329254,139.414413 321.749023,130.684769 328.334351,120.460373 
z"/>
</svg>