<svg version="1.1" id="Layer_1" xmlns="http://www.w3.org/2000/svg" xmlns:xlink="http://www.w3.org/1999/xlink" x="0px" y="0px"
	 width="100%" viewBox="0 0 512 512" enable-background="new 0 0 512 512" xml:space="preserve">
<path fill="#000000" opacity="1.000000" stroke="none" 
	d="
M513.000000,207.000000 
	C513.000000,308.950775 513.000000,410.901581 513.000000,512.926147 
	C342.333344,512.926147 171.666672,512.926147 1.000000,512.926147 
	C1.000000,483.575714 1.000000,454.256500 1.255494,424.702026 
	C3.658291,430.120880 7.850593,431.768616 13.714739,431.758881 
	C89.535545,431.633118 165.356613,431.672607 241.177628,431.673737 
	C250.148392,431.673889 250.145340,431.683105 250.175018,440.889862 
	C250.209412,451.554047 250.127075,462.220642 250.337357,472.881439 
	C250.449570,478.569946 253.355682,481.679901 258.998749,481.746063 
	C275.825531,481.943359 292.656006,481.837036 309.485016,481.822540 
	C312.512482,481.819946 314.983337,480.589996 316.724976,478.072296 
	C318.693268,475.226990 319.034454,472.227081 317.324249,469.141479 
	C315.441956,465.745422 312.436005,464.304382 308.637787,464.297516 
	C296.973175,464.276428 285.306854,464.124512 273.644775,464.283783 
	C269.279022,464.343384 267.696228,462.589325 267.801788,458.360840 
	C267.984650,451.032990 267.992401,443.695679 267.845184,436.366913 
	C267.773315,432.790009 269.393188,431.144348 272.742889,430.807404 
	C274.233551,430.657471 275.740356,430.613434 277.215576,430.372772 
	C336.756012,420.660553 379.488922,370.594330 379.628845,310.350372 
	C379.681885,287.520874 379.953491,264.684662 379.480621,241.864868 
	C379.304077,233.345184 380.172424,226.114258 388.167908,221.371490 
	C389.546722,220.553619 390.628235,219.109009 391.615692,217.781754 
	C394.025696,214.542419 397.133728,213.572372 401.139862,213.587967 
	C433.467468,213.713867 465.796844,213.516312 498.122894,213.772186 
	C504.472260,213.822433 509.534027,212.555466 513.000000,207.000000 
z"/>
<path fill="#000000" opacity="1.000000" stroke="none" 
	d="
M143.000000,1.000000 
	C266.238953,1.000000 389.477905,1.000000 513.000000,1.000000 
	C513.000000,68.020630 513.000000,135.041656 512.740845,202.280518 
	C511.837494,200.973953 511.143066,199.468628 510.556488,197.922379 
	C494.924652,156.717392 466.117035,130.806534 422.481537,122.245628 
	C418.256470,121.416710 416.582550,119.319366 415.594910,115.201027 
	C408.021790,83.622070 389.665649,60.126129 361.268311,44.596748 
	C333.033295,29.156128 302.326843,29.030853 272.153290,34.265327 
	C219.443222,43.409420 183.388687,88.522858 183.375366,141.973450 
	C183.369049,167.295151 183.305817,192.617126 183.430481,217.938202 
	C183.448044,221.503937 182.378036,223.889984 179.327591,225.737839 
	C174.180161,228.856003 169.487640,232.634399 165.448746,237.096069 
	C143.877853,260.924957 122.357193,284.799438 100.854401,308.689850 
	C78.683640,333.322388 56.431458,357.883301 34.455936,382.689087 
	C23.214945,395.377777 11.099648,407.312927 1.000000,421.000000 
	C1.000000,334.979095 1.000000,248.958206 1.200701,162.655182 
	C2.657179,164.474075 3.987338,163.346741 5.600744,162.719208 
	C9.267858,161.292862 12.920566,161.153778 16.647831,163.113297 
	C22.032866,165.944321 24.942055,165.268646 27.536392,159.668457 
	C34.109600,145.479462 45.388596,135.148209 56.560368,125.096458 
	C65.442970,117.104347 70.678139,106.788857 77.572144,97.586624 
	C81.318268,92.586235 84.310143,86.976059 88.882324,82.554901 
	C97.846886,73.886459 107.307060,65.672096 115.677055,56.465195 
	C122.759377,48.674717 130.466675,41.658890 138.249100,34.666733 
	C143.207642,30.211700 146.641449,24.848337 148.637482,18.514116 
	C150.904739,11.319143 149.164352,5.862189 143.000000,1.000000 
z"/>
<path fill="#000000" opacity="1.000000" stroke="none" 
	d="
M329.730103,51.869324 
	C362.395660,60.196960 385.333984,79.451759 395.581299,111.230759 
	C404.816315,139.870346 404.061920,168.598953 386.949677,194.722992 
	C373.473694,215.295822 354.055084,227.402176 329.429932,230.327240 
	C315.528412,231.978485 301.533783,231.998978 287.544312,231.428635 
	C285.450165,231.343262 283.661560,230.805664 282.031281,229.491028 
	C259.887238,211.634399 234.624481,208.267639 207.520416,213.495010 
	C205.904510,213.806656 204.316864,214.524109 202.549072,213.800659 
	C201.109528,212.140503 201.647766,210.053864 201.644791,208.125305 
	C201.608505,184.632095 201.572861,161.138687 201.638107,137.645584 
	C201.742889,99.927917 230.324448,63.146473 266.886414,53.560184 
	C287.560150,48.139683 308.402649,48.693138 329.730103,51.869324 
M343.234985,155.857498 
	C352.743896,152.178528 356.969696,144.178726 354.060272,135.364288 
	C351.556946,127.780197 342.968994,122.995750 335.371826,124.952721 
	C326.368256,127.271965 321.473022,135.222733 323.398071,144.400391 
	C325.133728,152.675400 333.138031,157.590027 343.234985,155.857498 
z"/>
<path fill="#000000" opacity="1.000000" stroke="none" 
	d="
M281.051331,255.054199 
	C293.141022,272.489441 293.614075,291.607391 289.900391,310.974976 
	C282.096466,351.673523 259.380737,381.556030 222.655594,400.707916 
	C206.879608,408.935028 189.842896,412.655304 172.205582,413.253571 
	C127.581459,414.767242 82.936279,413.566650 38.301430,413.895264 
	C36.505302,413.908508 34.620270,414.079590 33.012505,412.809967 
	C32.691448,410.803345 34.311188,409.872772 35.353043,408.710541 
	C81.819054,356.873901 128.508209,305.235413 174.705688,253.160751 
	C196.709991,228.357056 232.896866,223.506210 258.161316,235.656052 
	C267.354248,240.076981 274.905304,246.464615 281.051331,255.054199 
z"/>
<path fill="#000000" opacity="1.000000" stroke="none" 
	d="
M361.381958,266.000183 
	C361.380981,281.324310 361.232697,296.150116 361.404999,310.972198 
	C361.994171,361.661316 323.536530,405.663361 273.861237,412.498413 
	C265.255066,413.682587 256.624664,413.918488 247.969620,413.844513 
	C245.671631,413.824829 243.375885,413.541809 240.614731,412.774384 
	C267.263550,394.592346 288.265076,371.932312 299.766571,341.507385 
	C311.179749,311.316071 315.203033,281.017273 299.832947,249.842850 
	C320.928589,249.376328 341.270569,249.579300 361.381622,240.070007 
	C361.381622,249.397018 361.381622,257.448608 361.381958,266.000183 
z"/>
<path fill="#000000" opacity="1.000000" stroke="none" 
	d="
M409.280121,194.670105 
	C408.885345,191.355423 410.832123,189.059250 411.793396,186.441086 
	C416.313721,174.128876 418.826050,161.493362 418.677155,148.338226 
	C418.647949,145.757111 418.001862,143.014175 419.557251,140.603958 
	C448.524811,143.243698 479.654572,168.602203 488.608582,194.504272 
	C487.632080,195.720459 486.211884,195.434647 484.949860,195.436600 
	C460.954407,195.473801 436.958893,195.483383 412.963440,195.464584 
	C411.817627,195.463684 410.672089,195.148209 409.280121,194.670105 
z"/>
</svg>